<svg
  xmlns="http://www.w3.org/2000/svg"
  width="64"
  height="64"
  viewBox="0 0 64 64"
>
  <defs>
    <linearGradient
      id="shift-gradient"
      x1="12"
      y1="6"
      x2="52"
      y2="58"
      gradientUnits="userSpaceOnUse"
    >
      <stop offset="0" stop-color="#0ea5e9" />
      <stop offset="1" stop-color="#6366f1" />
    </linearGradient>
  </defs>
  <rect width="64" height="64" rx="14" fill="#0f172a" />
  <rect
    x="10"
    y="14"
    width="44"
    height="36"
    rx="10"
    fill="url(#shift-gradient)"
  />
  <path
    d="M38.2 24.6c-1.2-2.6-3.6-4-7.2-4-3.5 0-6.6 1.5-6.6 4.3 0 6.2 14.4 2.7 14.4 11 0 4.6-3.9 7.1-8.7 7.1-4.4 0-8-2-9.8-5.3l3.5-1.9c1.2 2.4 3.6 3.7 6.4 3.7 3 0 5-1.3 5-3.4 0-6.1-14.4-2.8-14.4-11.2 0-4.5 4.1-7.6 9.4-7.6 4.1 0 7.3 1.8 8.9 4.9z"
    fill="#f8fafc"
  />
</svg>

